/* XPM */
static char *c43c99a6a9564d46b3d3faef14a785e5vzQs3ASRsTQloE5b[] = {
/* columns rows colors chars-per-pixel */
"32 32 12 1 ",
"  c #6B3E75",
". c #397B44",
"X c #AE2334",
"o c #E83B3B",
"O c #71AA34",
"+ c #F79617",
"@ c #F9C22B",
"# c #F9C72C",
"$ c #FFEB3B",
"% c #4D65B4",
"& c #905EA9",
"* c #4D9BE6",
/* pixels */
"$$$$$$$@@@$$$$$$$$$$$$$$$$$$$$$$",
"$$$$$$$@$@$$$$$$$$$$$$$$$$$$$$$$",
"$$$$$$$@$@$$$$$$$$$$$$$$$$$$$$$$",
"$$$@@@$@$@$$$$$$OO$OO$$$$$$$$$$$",
"$$$@$@@@@$$$$$$$O$O$O$$$$$$$$$$$",
"$$$#@$@++@@@@$X.XooOoo$$$$$$$$$$",
"$$$$@@+@++.@@@X.XXX.XX$$$$$$$$$$",
"$$$$$..@+@O.$$X.XooOoo$$$$$$$$$$",
"$$$$..@@.@@OO$X.XooOoo$$$$$$$$$$",
"$$$$..@.O@@OO$X.XooOoo$$$$$$$$$$",
"$$$$$@@OOO@@OO%%******&&$$&&$$$$",
"$$$$$...OO@@OO%%******&$&&$&$$$$",
"$$$$$$..OOO@+O@%%%%%%%&$&&$&$$$$",
"$$$$$$...OO+@@@%***%%%$&  &$$$$$",
"$$$$$$X..O@@@@@O%**%++@@&&@@@@$$",
"$$$$$Xo.++@@@+OO%**%++@@&&@@@@$$",
"$$$$$XoX++@OO@@OO%*%%+++  +++$$$",
"$$$$XXXooXXOO@@OO%%%%++@&&@@@o$$",
"$$$$XXXXoooooXX@OO%%%++@&&@@@o$$",
"$$$XXXXXXXXXoooooooooo+@&&@@@oo$",
"$$XXXXXXooooXXoXXoXoooooooooooo$",
"$XXXXXXXooooooooooooooooooooXXoo",
"$XXXXXXXXXoooooooooooooooXXXXooo",
"XXXXXooooXXooooooooooXXooooooooo",
"XXXXXooooooooooooooooooooooooooo",
"XXXXoooooooooooooooooooooooooooo",
"XXXXoooooooooooooooooooooooooooo",
"XXXXXooooooooooooooooooooooooooo",
"XXXXXXXXoooooooooooooooooooooooX",
"XXXXXXXXXoooXXXoXooXXXXXXoooooX$",
"$$XXXXXXXXXXXXoooooooooooooXX$$$",
"$$$$$$$$$$$$$$$$$$$$$$$$$$$$$$$$"
};
