/* XPM */
static char *_58d33871faa4f2fbd1d74c8f02ddde7onqdDOVGt5KDOaK3[] = {
/* columns rows colors chars-per-pixel */
"32 32 5 1 ",
"  c #37474F",
". c #008000",
"X c #4CAF50",
"o c #CDDC39",
"O c #FFEB3B",
/* pixels */
"OOOOOOOOOOOOOOOOOOOOOOOOOOOOOOOO",
"OOOOOOOO               OOOOOOOOO",
"OOOOOOOO XXXXXXXXXXXXX OOOOOOOOO",
"OOOOOOOO XXXXXXXXXXXXX OOOOOOOOO",
"OOOOOOOO XXXXXXXXXXXXX OOOOOOOOO",
"OOOOOOOO XXXXXXXXXXXXX OOOOOOOOO",
"OOOOOOOO XX.........oX OOOOOOOOO",
"OOOOOOOO XX.XX.XX.XXoX OOOOOOOOO",
"OOOOOOOO XX.XX.XX.XXoX OOOOOOOOO",
"OOOOOOOO XX.XX.XX.XXoX OOOOOOOOO",
"OOOOOOOO XX.XX.XX.XXoX OOOOOOOOO",
"OOOOOOOO XX.XX.XX.XXoX OOOOOOOOO",
"OOOOOOOO XX.XX.XX.XXoX OOOOOOOOO",
"OOOOOOOO XX.oooooooooX OOOOOOOOO",
"OOOOOOOO XXXXXXXXXXXXX OOOOOOOOO",
"OOOOOOOO XXXXXXXXXXXXX OOOOOOOOO",
"OOOOOOOO XXXXXXXXXXXXX OOOOOOOOO",
"OOOOOOOO XXXXXXXXXXXXX OOOOOOOOO",
"OOOOOOOO XXXXXXXXXXXXX OOOOOOOOO",
"OOOOOOOO XX.XX.XX.XXoX OOOOOOOOO",
"OOOOOOOO XX.XX.XX.XXoX OOOOOOOOO",
"OOOOOOOO XX.XX.XX.XXoX OOOOOOOOO",
"OOOOOOOO XX.XX.XX.XXoX OOOOOOOOO",
"OOOOOOOO XX.XX.XX.XXoX OOOOOOOOO",
"OOOOOOOO XX.XX.XX.XXoX OOOOOOOOO",
"OOOOOOOO XX.XX.XX.XXoX OOOOOOOOO",
"OOOOOOOO XX.oooooooooX OOOOOOOOO",
"OOOOOOOO XXXXXXXXXXXXX OOOOOOOOO",
"OOOOOOOO XXXXXXXXXXXXX OOOOOOOOO",
"OOOOOOOO XXXXXXXXXXXXX OOOOOOOOO",
"OOOOOOOO               OOOOOOOOO",
"OOOOOOOOOOOOOOOOOOOOOOOOOOOOOOOO"
};
