/* XPM */
static char *f36c18583f01471992beef026c0c0413GEXxQplfjM28G8VJ[] = {
/* columns rows colors chars-per-pixel */
"32 32 6 1 ",
"  c black",
". c #37474F",
"X c #008000",
"o c #4CAF50",
"O c #CDDC39",
"+ c #FFEB3B",
/* pixels */
"+++++++++++++oooo+++++++++++++++",
"++++++++.....ooooo.+++++++++++++",
"++++++++..   oXXoo.+++++++++++++",
"++++++++..   oXoXo.+++++++++++++",
"++++++++..   oXooo.+++++++++++++",
"++++++++..   oXooo.+++++++++++++",
"++++++++..   oXooX.+++++++++++++",
"++++++++..   oXooX.+++++++++++++",
"++++++++..   oXooX.+++++++++++++",
"++++++++..   oXooo.+++++++++++++",
"++++++++..   oXooo.+++++++++++++",
"++++++++..   ooOoo.+++++++++++++",
"++++++++..   ooooo.+++++++++++++",
"++++++++..   ooooo.+++++++++++++",
"++++++++..   ooooo.+++++++++++++",
"++++++++..   ooooo.+++++++++++++",
"++++++++..   ooXoo.+++++++++++++",
"++++++++..   oXooo.+++++++++++++",
"++++++++..   oXooo.+++++++++++++",
"++++++++..   oXooO.+++++++++++++",
"++++++++..   oXooX.+++++++++++++",
"++++++++..   oXooX.+++++++++++++",
"++++++++..   oXooX.+++++++++++++",
"++++++++..   oXooo.+++++++++++++",
"++++++++..   oXoOo.+++++++++++++",
"++++++++..   oXOoo.+++++++++++++",
"++++++++.....ooooo.+++++++++++++",
"+++++++++++++oooo+++++++++++++++",
"+++++++++++++oo+++++++++++++++++",
"++++++++++++++++++++++++++++++++",
"++++++++++++++++++++++++++++++++",
"++++++++++++++++++++++++++++++++"
};
