/* XPM */
static char *_597ff62a9384a48d192ad9b470170acKkxs3nBBf6GW5KrD[] = {
/* columns rows colors chars-per-pixel */
"32 32 10 1 ",
"  c #1F010F",
". c #5F3632",
"X c #C80E2D",
"o c #F42A2E",
"O c #DD6A6A",
"+ c #FFEB3B",
"@ c #FEC095",
"# c #93B0DA",
"$ c #B8D5EF",
"% c #FEFEFD",
/* pixels */
"++++++++++++        ++++++++++++",
"++++++++    ooooooXX  ++++++++++",
"+++++++ ooooooooooooXX  ++++++++",
"++++++ ooooooooooooooXXX +++++++",
"+++++ ooooooooooooooooXX +++++++",
"++++ oooooXooooooooooooXX  +++++",
"+++ ooooXXooooooooooooooXXX ++++",
"++ ooooX ooooooooooooooooXX ++++",
"++ ooXX Xoo%%%%%%%%%%%oooXX ++++",
"+ ooX  Xo%%%%%%%%%%%%%%%oXXX +++",
"+ oX XXo%%%%%%%%%%%%%%%%%$$X +++",
"+ XX ##$%%%%%%%%%%%%%%%%%$$# +++",
" %%% ##$$$$$$$$$$$$$$$$$$$$# +++",
" %%$ ####                ### +++",
" $$$   # OO%%%OOOOOO%%%OO # ++++",
"+   +++  O@%  @@@@@@  %@O  +++++",
"+++++  ##@@   @@@@@@   @@##  +++",
"++++ OO%@@@@@@@o%%o@@@@@@@%OO ++",
"++++ O@%%@@@@@OooooO@@@@@%%@O ++",
"++++ O@%%@@@%%%oooo%%%@@@%%@O ++",
"+++++  %%%%%%%%%$$%%%%%%%%%  +++",
"++++  $%%%#%%%%    %%%%#%%%$  ++",
"+++ XX $%%#####%%%%#####%%$ XX +",
"++ oooX $%%%%%%%%%%%%%%%%$ Xooo ",
"++ oooX $$%%%%%%%%%%%%%%$$ Xooo ",
"++ oooX $$%%%%%%%%%%%%%%$$ Xooo ",
"++ %%oXX $$%%%%%%%%%%%%$$ XXo%% ",
"++ %%$$#  $$%%%%%%%%%%$$  #$$%% ",
"++ $$$# X  $$$%%%%%%$$$  X #$$$ ",
"+++     oXX $$$%%%%$$$ XXo     +",
"+++++++       $$$$$$       +++++",
"+++++++ ...... $$$$ ...... +++++"
};
